Coordinates
nRows=108
nColumns=2
inDegrees=yes
endheader
time	ankle_angle_r	
2.64819	 -0.353563	
2.71976	 -0.350952	
2.79133	 -0.436452	
2.8629	 -0.369446	
2.93448	 -0.393286	
3.00605	 -0.393078	
3.07762	 -0.366387	
3.14919	 -0.346885	
3.22077	 -0.324709	
3.29234	 -0.375176	
3.36391	 -0.340384	
3.43548	 -0.396729	
3.50706	 -0.366211	
3.57863	 -0.427246	
3.6502	 -0.402251	
3.72177	 -0.366211	
3.79335	 -0.381470	
3.86492	 -0.366211	
3.93649	 -0.350952	
4.00806	 -0.320435	
4.07964	 -0.374699	
4.15121	 -0.396729	
4.22278	 -0.313248	
4.29435	 -0.388865	
4.36593	 -0.373867	
4.4375	 -0.411987	
4.50907	 -0.343712	
4.58065	 -0.411987	
4.65222	 -0.381470	
4.72379	 -0.337721	
4.79536	 -0.353396	
4.86694	 -0.335693	
4.93851	 -0.411987	
5.01008	 -0.335693	
5.08165	 -0.318967	
5.15323	 -0.395885	
5.2248	 -0.345793	
5.29637	 -0.300224	
5.36794	 -0.268886	
5.43952	 -0.340229	
5.51109	 -0.327038	
5.58266	 -0.225981	
5.65423	 -0.328257	
5.72581	 -0.335693	
5.79738	 -0.316939	
5.86895	 -0.313860	
5.94052	 -0.366211	
6.0121	 -0.393857	
6.08367	 -0.335693	
6.15524	 -0.371121	
6.22681	 -0.368458	
6.29839	 -0.405870	
6.36996	 -0.320435	
6.44153	 -0.383093	
6.5131	 -0.428661	
6.58468	 -0.383884	
6.65625	 -0.382469	
6.72782	 -0.382261	
6.7994	 -0.442505	
6.87097	 -0.350952	
6.94254	 -0.336194	
7.01411	 -0.427205	
7.08569	 -0.335942	
7.15726	 -0.365754	
7.22883	 -0.336358	
7.3004	 -0.381470	
7.37198	 -0.336774	
7.44355	 -0.274658	
7.51512	 -0.381470	
7.58669	 -0.322140	
7.65827	 -0.381470	
7.72984	 -0.355195	
7.80141	 -0.376811	
7.87298	 -0.409450	
7.94456	 -0.388493	
8.01613	 -0.427246	
8.0877	 -0.399890	
8.15927	 -0.411987	
8.23085	 -0.381470	
8.30242	 -0.411987	
8.37399	 -0.446498	
8.44556	 -0.381470	
8.51714	 -0.366211	
8.58871	 -0.376852	
8.66028	 -0.371036	
8.73185	 -0.340727	
8.80343	 -0.299934	
8.875	 -0.330244	
8.94657	 -0.326092	
9.01815	 -0.350952	
9.08972	 -0.357026	
9.16129	 -0.381470	
9.23286	 -0.383749	
9.30444	 -0.311873	
9.37601	 -0.428693	
9.44758	 -0.366211	
9.51915	 -0.365596	
9.59073	 -0.320235	
9.6623	 -0.411987	
9.73387	 -0.389416	
9.80544	 -0.335693	
9.87702	 -0.366211	
9.94859	 -0.344263	
10.0202	 -0.444802	
10.0917	 -0.381470	
10.1633	 -0.454635	
10.2349	 -0.499995	
10.3065	 -0.463412	
